<?xml version="1.0" encoding="utf-8"?>
<!-- Generator: Adobe Illustrator 17.1.0, SVG Export Plug-In . SVG Version: 6.00 Build 0)  -->
<svg version="1.2" baseProfile="tiny" id="Layer_1" xmlns="http://www.w3.org/2000/svg" xmlns:xlink="http://www.w3.org/1999/xlink"
	 x="0px" y="0px" viewBox="0 0 72 72" xml:space="preserve">
<g>
	<polygon fill="#C17B9E" points="35.92,39.357 10.069,40.559 10.069,59.002 35.92,52.934 	"/>
	<polygon fill="#C17B9E" points="51.803,54.144 20.19,64.339 20.19,41.612 51.803,39.594 	"/>
	<polygon fill="#7A3E65" points="14.617,41.056 20.19,41.612 20.19,64.062 14.617,61.276 	"/>
	<polygon fill="#CFB2C1" points="51.803,39.594 46.018,39.357 14.617,41.056 20.19,41.612 	"/>
	<polygon fill="#C17B9E" points="65.744,31.769 36.065,28.8 36.065,0 65.744,14.84 	"/>
	<polygon fill="#7A3E65" points="6.384,31.769 36.065,28.8 36.065,0 6.384,14.84 	"/>
	<polygon fill="#512843" points="65.744,31.769 36.065,33.003 6.384,31.769 36.065,28.8 	"/>
	<polygon fill="#7A3E65" points="10.069,40.601 6.256,40.219 6.256,57.096 10.069,59.002 	"/>
	<polygon fill="#CFB2C1" points="35.92,39.357 31.76,39.162 6.256,40.219 9.788,40.572 	"/>
	<polygon fill="#C17B9E" points="65.744,40.279 65.744,57.088 57.23,61.345 57.23,41.13 	"/>
	<polygon fill="#7A3E65" points="51.803,59.76 57.23,61.23 57.23,41.13 51.803,40.831 	"/>
	<polygon fill="#CFB2C1" points="65.744,40.279 60.704,40.067 51.803,40.831 57.293,41.134 	"/>
	<polygon fill="#C17B9E" points="51.803,41.674 51.803,64.058 35.92,72 35.92,43.262 	"/>
	<polygon fill="#7A3E65" points="27.143,42.308 35.92,43.185 35.92,72 27.143,67.603 	"/>
	<polygon fill="#CFB2C1" points="51.803,41.674 42.774,41.089 27.143,42.308 36.366,43.23 	"/>
</g>
</svg>
